# xmcd
# 
# Track frame offsets:
#     150
#     39862
#     59120
#     80852
#     107437
#     136095
#     159335
#     184045
#     215712
#     239887
#     268690
#     297752
# 
# Disc length: 4364
# 
# Revision: 11
# Processed by: cddbd v1.5.2PL0 Copyright (c) Steve Scherf et al.
# Submitted via: BonkEnc v1.0.6
# 
DISCID=b2110a0c
DTITLE=Jamiroquai - The Return Of The Space Cowboy
DYEAR=1994
DGENRE=Acid Jazz
TTITLE0=Just Another Story
TTITLE1=Stillness In Time
TTITLE2=Half The Man
TTITLE3=Light Years
TTITLE4=Manifest Destiny
TTITLE5=The Kids
TTITLE6=Mr Moon
TTITLE7=Scam
TTITLE8=Journey To Arnhemiand
TTITLE9=Morning Glory
TTITLE10=Space Cowboy
TTITLE11=Space Cowboy (Stoned Again)
EXTD=YEAR: 1994
EXTT0=
EXTT1=
EXTT2=
EXTT3=
EXTT4=
EXTT5=
EXTT6=
EXTT7=
EXTT8=
EXTT9=
EXTT10=
EXTT11=
PLAYORDER=
